<?xml version="1.0" encoding="utf-8"?>
<!-- Generator: Adobe Illustrator 26.4.1, SVG Export Plug-In . SVG Version: 6.00 Build 0)  -->
<svg version="1.1" id="Layer_1" xmlns="http://www.w3.org/2000/svg" xmlns:xlink="http://www.w3.org/1999/xlink" x="0px" y="0px"
	 viewBox="0 0 256 256" style="enable-background:new 0 0 256 256;" xml:space="preserve">
<path d="M219.7,43.7c3.2,0,5.8,2.6,5.8,5.8v181.9c0,3.2-2.6,5.8-5.8,5.8h-18.8c-3.2,0-5.8-2.6-5.8-5.8v-19.8l-1.8,2.5
	c-12.4,17.5-28,26.1-47.4,26.1c-31.3,0-64.6-25.5-64.6-72.4v-0.5c0-47.6,32.5-72.4,64.6-72.4c19.3,0,34.9,8,47.4,24.5l1.8,2.3V49.5
	c0-3.2,2.6-5.8,5.8-5.8L219.7,43.7L219.7,43.7z M112,167.7c0,26.3,17.9,46.1,41.6,46.2c23.6,0,42-20.4,42-46.2v-0.5
	c0-26.4-18.1-46.2-42-46.2c-24.1,0-41.6,19.4-41.6,46.2L112,167.7L112,167.7z M-1.6,115c0.1,1.7,0.6,2.8,1.2,3.4
	c1.1,1.1,3.8,1.4,4.4,0.7c0.6-0.6,1.1-1.9,1.4-3.2C8.3,93.8,23.5,68.4,45,48.1C68.3,26.2,92.6,14,115.3,12.6
	c1.4-0.1,2.7-0.6,3.2-1.1c0.6-0.6,0.4-3.1-0.6-4.3c-0.6-0.6-1.8-1.4-3.2-1.4c-10.3-1.1-24.1-1.5-40.5,2.3
	c-17.3,4-33.1,12.5-44.8,23.5C17.4,42.8,7.1,58.7,2.9,73.2C-2.4,91.1-2.6,104.3-1.6,115L-1.6,115z M41.2,134.4
	c0.1,1.1,0.5,2,0.9,2.6c0.7,0.8,2.7,0.9,3.2,0.5s0.9-1.4,1-2.4c2.2-16.6,13.7-35.8,29.7-50.9c17.5-16.5,35.8-25.7,52.8-26.7
	c1,0,2.1-0.4,2.5-0.8c0.4-0.5,0.3-2.4-0.5-3.2c-0.4-0.5-1.3-1-2.4-1c-7.8-0.9-18.2-1.1-30.5,1.7C85.1,57,73.2,63.5,64.4,71.7
	c-9,8.5-16.7,20.5-19.9,31.3C40.6,116.5,40.4,126.3,41.2,134.4L41.2,134.4z"/>
</svg>
